<svg xmlns="http://www.w3.org/2000/svg" width="1600" height="900" viewBox="0 0 1600 900" fill="none"><rect width="1600" height="900" fill="#F7F8F3"/><circle cx="355" cy="278" r="115" fill="#F2D97D"/><path d="M0 650C209 562 409 546 610 602C830 664 1044 796 1267 807C1388 813 1499 786 1600 738V900H0V650Z" fill="#89B56A"/><path d="M0 747C252 664 495 679 731 786C973 895 1285 943 1600 789V900H0V747Z" fill="#2F6B3F"/><rect x="734" y="250" width="616" height="366" rx="34" fill="#FFFDF4" stroke="#DCE4D4" stroke-width="8"/><path d="M857 499H1223" stroke="#D7DEC8" stroke-width="18" stroke-linecap="round"/><path d="M868 394L985 475L1118 329L1237 415" stroke="#2F6B3F" stroke-width="22" stroke-linecap="round" stroke-linejoin="round"/><text x="151" y="189" fill="#143C24" font-family="Arial, sans-serif" font-size="82" font-weight="700">Healthy crops support food security</text><text x="152" y="292" fill="#476352" font-family="Arial, sans-serif" font-size="34">Early disease detection helps farmers protect income and harvest quantity.</text></svg>
